<svg width="851" height="237" viewBox="0 0 851 237" fill="none" xmlns="http://www.w3.org/2000/svg">
<path fill-rule="evenodd" clip-rule="evenodd" d="M479.119 17.2061C482.904 19.7562 473.068 20.8999 468.69 20.1881C469.213 16.239 476.671 19.2285 479.119 17.2061Z" fill="black"/>
<path fill-rule="evenodd" clip-rule="evenodd" d="M491.042 17.9523C490.912 16.7373 495.915 16.4477 494.767 18.6959C493.038 18.934 491.907 18.5781 491.042 17.9523Z" fill="black"/>
<path fill-rule="evenodd" clip-rule="evenodd" d="M495.512 17.9523C495.382 16.7373 500.386 16.4477 499.238 18.6959C497.509 18.934 496.376 18.5781 495.512 17.9523Z" fill="black"/>
<path fill-rule="evenodd" clip-rule="evenodd" d="M555.862 32.1068C549.52 31.4589 547.153 33.9599 541.708 32.1068C543.126 27.4189 554.052 28.7198 555.862 32.1068Z" fill="black"/>
<path fill-rule="evenodd" clip-rule="evenodd" d="M474.65 31.3631C472.686 34.9735 465.705 33.8102 460.494 34.3428C455.787 34.8238 448.534 37.3543 444.848 34.3428C448.483 27.2986 466.431 34.5661 472.416 29.8708C473.014 30.5139 474.456 30.3151 474.65 31.3631Z" fill="black"/>
<path fill-rule="evenodd" clip-rule="evenodd" d="M564.059 35.8328H570.764C571.041 38.8983 564.738 38.0491 564.059 35.8328Z" fill="black"/>
<path fill-rule="evenodd" clip-rule="evenodd" d="M481.355 49.987C479.518 50.0852 477.765 50.0999 476.884 49.2408C476.656 47.5228 479.038 48.4137 479.121 47.0049C478.657 46.2391 476.006 47.1031 476.139 44.0253C479.366 42.506 481.525 45.9176 481.355 49.987Z" fill="black"/>
<path fill-rule="evenodd" clip-rule="evenodd" d="M570.016 47.0075C569.312 49.5896 562.173 48.6692 560.331 47.7512C561.653 44.8918 567.892 44.963 570.016 47.0075Z" fill="black"/>
<path fill-rule="evenodd" clip-rule="evenodd" d="M470.925 47.7513C472.762 47.6532 474.515 47.6384 475.396 48.4975C475.364 50.7384 470.105 50.6623 470.925 47.7513Z" fill="black"/>
<path fill-rule="evenodd" clip-rule="evenodd" d="M578.959 52.2232C577.021 52.3091 571.682 54.4788 570.762 50.7309C572.354 49.8718 579.506 48.598 578.959 52.2232Z" fill="black"/>
<path fill-rule="evenodd" clip-rule="evenodd" d="M584.918 50.7335C584.943 52.9916 582.306 52.589 580.447 52.9695C580.055 52.3681 579.672 51.7595 579.704 50.7335C581.315 49.0523 582.245 51.3496 584.918 50.7335Z" fill="black"/>
<path fill-rule="evenodd" clip-rule="evenodd" d="M244.425 105.118C242.5 111.139 240.31 116.897 237.72 122.252C224.532 121.899 219.001 122.75 207.918 123.742C207.905 115.537 211.238 110.672 213.877 105.118C217.218 106.281 218.847 104.04 220.583 103.628C223.457 102.946 222.92 105.864 224.309 105.862C225.25 105.862 226.744 104.548 228.034 104.372C230.595 104.021 233.347 104.75 236.228 105.118C238.335 103.81 242.63 102.585 244.425 105.118Z" fill="black"/>
<path fill-rule="evenodd" clip-rule="evenodd" d="M661.659 131.94C656.398 131.277 649.234 131.385 643.777 131.194C642.705 131.361 643.519 133.418 642.288 133.43C640.422 133.555 639.956 132.284 639.308 131.194C642.823 127.259 646.107 123.094 652.719 122.252C653.757 127.424 661.649 125.743 661.659 131.94Z" fill="black"/>
<path fill-rule="evenodd" clip-rule="evenodd" d="M810.675 122.998C811.205 125.696 813.273 126.857 813.655 129.704C809.483 130.958 801.328 130.244 801.733 124.488C805.306 122.964 806.452 123.641 810.675 122.998Z" fill="black"/>
<path fill-rule="evenodd" clip-rule="evenodd" d="M797.262 141.625C798.289 142.584 798 144.86 798.007 146.838C795.334 147.277 794.402 145.974 792.79 145.348C790.534 145.326 792.069 149.098 789.81 149.074C783.639 145.861 790.321 138.881 797.262 141.625Z" fill="black"/>
<path fill-rule="evenodd" clip-rule="evenodd" d="M686.998 144.602C686.998 146.092 686.998 147.582 686.998 149.071C683.049 151.992 679.368 150.861 673.587 151.307C672.434 149.781 672.434 144.636 673.587 143.112C678.107 143.559 684.722 141.91 686.998 144.602Z" fill="black"/>
<path fill-rule="evenodd" clip-rule="evenodd" d="M704.127 144.602C707.683 152.171 696.141 153.465 690.716 152.051C689.563 150.527 689.563 145.382 690.716 143.856C695.614 143.676 698.839 145.169 704.127 144.602Z" fill="black"/>
<path fill-rule="evenodd" clip-rule="evenodd" d="M783.85 143.858C785.354 145.581 784.613 149.575 783.105 150.564C778.916 148.919 772.134 152.677 772.676 145.348C774.584 143.66 777.93 145.049 779.382 146.094C781.199 145.677 780.969 143.21 783.85 143.858Z" fill="black"/>
<path fill-rule="evenodd" clip-rule="evenodd" d="M634.84 146.836C635.889 150.117 632.389 148.853 630.371 149.069C629.09 145.991 633.748 145.076 634.84 146.836Z" fill="black"/>
<path fill-rule="evenodd" clip-rule="evenodd" d="M552.882 149.074C553.296 153.453 548.896 154.754 546.922 158.013C543.338 163.926 541.435 175.457 543.196 184.089C543.576 185.954 545.435 187.149 546.176 189.304C546.745 190.964 546.318 192.552 546.922 193.774C548.818 197.612 552.519 200.241 553.627 204.203C544.474 203.832 538.119 187.964 538.725 174.404C539.196 163.82 543.667 154.619 548.41 149.072C549.59 149.01 551.251 149.43 551.39 148.328C552.256 148.208 552.715 148.495 552.882 149.074Z" fill="black"/>
<path fill-rule="evenodd" clip-rule="evenodd" d="M630.369 150.564C632.203 150.466 633.957 150.451 634.837 151.31C634.697 153.404 633.542 154.483 631.112 154.29C630.489 153.423 630.131 152.292 630.369 150.564Z" fill="black"/>
<path fill-rule="evenodd" clip-rule="evenodd" d="M239.954 198.24C231.846 196.485 227.004 184.677 228.778 171.419C229.786 163.881 233.629 153.735 239.954 154.284C236.837 160.995 231.677 169.322 232.503 179.614C233.099 187.056 238.181 191.545 239.954 198.24Z" fill="black"/>
<path fill-rule="evenodd" clip-rule="evenodd" d="M635.587 155.777C635.563 158.484 633.397 159.051 630.373 158.759C628.992 154.697 633.647 154.208 635.587 155.777Z" fill="black"/>
<path fill-rule="evenodd" clip-rule="evenodd" d="M687.734 157.274C688.263 160.035 686.461 160.47 686.988 163.233C683.846 166.228 676.307 165.813 672.831 163.233C669.869 152.289 682.453 155.065 687.734 157.274Z" fill="black"/>
<path fill-rule="evenodd" clip-rule="evenodd" d="M786.087 158.759C785.609 162.998 779.761 161.874 775.656 162.485C774.628 161.525 774.917 159.248 774.91 157.269C777.829 155.242 784.991 154.906 786.087 158.759Z" fill="black"/>
<path fill-rule="evenodd" clip-rule="evenodd" d="M692.952 156.523C697.271 157.446 702.044 157.446 706.363 156.523C709.15 163.862 701.841 166.664 693.698 165.464C692.707 163.228 692.94 159.765 692.952 156.523Z" fill="black"/>
<path fill-rule="evenodd" clip-rule="evenodd" d="M723.5 157.274C724.688 161.937 720.452 161.181 721.264 165.467C717.798 166.897 711.89 166.463 710.089 163.979V158.764C713.293 156.015 720.189 156.157 723.5 157.274Z" fill="black"/>
<path fill-rule="evenodd" clip-rule="evenodd" d="M771.93 161.739C770.328 163.121 766.47 162.242 763.733 162.485C762.316 156.734 773.426 154.972 771.93 161.739Z" fill="black"/>
<path fill-rule="evenodd" clip-rule="evenodd" d="M760.749 158.01V162.48C759.392 163.619 754.656 163.619 753.3 162.48C753.329 158.538 756.903 158.138 760.749 158.01Z" fill="black"/>
<path fill-rule="evenodd" clip-rule="evenodd" d="M255.598 169.187C256.353 164.477 259.62 162.283 263.049 160.249C262.877 165.538 259.458 167.585 255.598 169.187Z" fill="black"/>
<path fill-rule="evenodd" clip-rule="evenodd" d="M240.702 160.993C240.933 164.451 238.186 167.035 237.722 170.678C236.93 176.89 240.072 182.901 239.211 187.812C232.248 183.978 233.062 163.27 240.702 160.993Z" fill="black"/>
<path fill-rule="evenodd" clip-rule="evenodd" d="M243.679 171.424H245.916C245.349 176.46 247.719 178.559 248.15 182.598C251.113 181.587 249.364 175.866 251.13 173.66C256.043 174.138 252.305 182.537 251.876 184.832C243.613 191.356 239.23 177.569 243.679 171.424Z" fill="black"/>
<path fill-rule="evenodd" clip-rule="evenodd" d="M659.425 177.383C661.778 177.017 662.055 178.725 664.64 178.129C666.411 181.457 664.068 184.265 664.64 188.558C662.31 188.405 659.17 189.061 657.934 187.814C657.701 183.607 658.133 180.063 659.425 177.383Z" fill="black"/>
<path fill-rule="evenodd" clip-rule="evenodd" d="M564.802 204.205V207.928C561.094 209.685 554.172 210.196 553.628 204.948C557.371 204.691 559.894 205.697 564.802 204.205Z" fill="black"/>
<path fill-rule="evenodd" clip-rule="evenodd" d="M623.663 90.9634C592.426 94.9616 557.02 96.7411 525.315 98.4125C522.082 101.638 519.826 105.837 517.864 110.334C512.252 115.183 508.09 117.248 497.747 117.783C481.032 118.652 461.838 118.288 444.103 119.275C431.17 119.994 422.473 120.338 407.595 120.765C406.943 141.711 408.554 162.418 409.83 183.345C430.312 180.205 463.883 191.378 464.219 166.954C455.137 164.91 449.491 166.873 441.868 165.464C440.912 164.485 440.912 162.718 441.868 161.741C439.286 161.343 434.802 162.848 434.417 160.251C434.329 154.223 440.117 156.638 443.357 156.525C458.652 155.985 476.414 155.664 491.787 155.779C495.677 149.739 498.164 142.29 502.961 137.155C509.336 138.999 511.948 133.699 511.904 128.96C528.469 128.263 539.511 127.303 555.117 128.214C555.742 129.078 556.1 130.212 555.862 131.94C564.984 131.758 569.558 136.124 572.253 142.368C584.558 138.78 600.547 141.794 614.721 140.879C621.596 140.434 627.502 138.076 633.349 140.135C634.011 143.294 629.513 143.529 628.132 142.368V148.33C622.246 148.88 619.521 149.327 615.467 150.564C618.402 152.883 622.981 148.973 625.152 152.056C611.523 158.543 594.585 152.984 577.468 155.779C593.979 156.393 602.607 157.35 618.447 156.525C620.681 157.272 619.862 161.071 624.406 159.505C625.26 161.849 623.237 161.316 622.918 162.485C627.168 164.522 632.172 162.816 634.092 160.251C635.124 160.708 634.202 163.118 635.583 163.228C645.372 162.588 656.973 163.759 663.894 160.251C666.062 155.713 662.587 145.532 666.874 143.115C669.175 144.622 670.089 155.151 669.111 160.995C668.571 164.205 666.614 166.554 666.128 168.444C724.617 168.726 771.724 166.404 822.592 163.975C817.724 159.75 804.624 165.653 801.73 160.995C798.122 163.825 793.722 162.595 788.319 162.485V157.272C792.918 156.867 797.889 156.211 801.73 156.525C799.304 150.335 802.768 144.609 803.219 140.881C810.054 140.233 824.007 138.306 828.552 142.371C829.011 146.305 823.873 144.646 821.847 146.094C822.872 148.919 821.209 150.475 821.101 153.546C815.698 154.015 814.557 154.186 809.181 154.289C813.169 156.511 822.33 153.56 826.318 155.779C826.259 159.942 818.744 156.648 816.632 158.759C823.679 160.16 833.323 158.958 833.769 166.954C837.985 166.758 844.09 163.712 847.18 166.954C847.916 171.664 844.816 172.538 841.966 173.66C843.962 178.296 840.242 179.921 841.22 185.578C832.928 190.919 822.242 188.391 811.418 189.304C800.501 190.227 788.763 194.524 777.89 193.773C772.794 197.617 772.264 206.031 767.459 210.164H785.342C788.044 209.447 785.967 213.512 788.321 213.144H795.027C794.46 210.979 788.888 213.821 788.321 211.654C789.435 209.31 794.34 210.203 798.007 210.164C804.622 210.095 811.649 209.425 815.144 212.4C818.224 211.961 825.29 210.238 827.063 213.144C827.728 217.287 824.991 218.025 821.104 217.613C825.795 220.654 833.256 221.192 838.986 218.359C842.042 220.519 849.858 217.917 850.906 222.085C849.78 227.271 843.692 224.561 840.477 224.318C829.526 223.499 814.562 221.349 804.713 223.575C799.66 224.716 789.565 223.855 781.616 225.065C775.067 226.061 762.937 226.851 753.305 227.298C734.341 228.182 716.641 227.512 696.678 229.534C693.681 229.838 690.758 231.444 687.739 231.77C682.085 232.381 676.557 230.636 670.602 230.278C659.71 229.627 646.588 231.223 634.84 231.77C630.057 231.991 624.978 231.245 620.683 231.77C615.314 232.423 610.318 234.867 605.035 231.024C601.332 231.677 596.191 231.237 593.116 231.024C583.464 236.568 565.913 237.369 552.882 234.004C523.144 240.989 490.885 229.937 459.005 236.983C457.926 235.12 457.2 234.058 458.259 231.77C446.44 231.772 436.728 232.246 424.732 231.024C422.625 230.904 422.998 233.262 421.006 233.26C386.939 234.313 346.713 233.886 313.718 234.004C312.447 233.535 312.491 231.753 311.483 231.024C303.046 232.506 300.076 228.523 292.856 228.79C291.421 228.864 294.013 231.564 292.11 232.514C275.233 229.605 253.093 234.18 238.466 233.26C237.691 231.149 237.691 230.155 238.466 228.044C230.37 229.21 222.389 227.899 215.369 228.79C214.266 227.907 214.209 225.975 213.135 225.065C191.424 224.547 168.742 224.834 147.568 223.575C145.022 223.015 146.624 226.601 143.843 225.808C137.569 224.225 131.324 226.427 125.217 225.808C121.83 225.467 119.034 222.838 115.532 223.575C111.674 223.192 112.243 227.239 108.826 227.298C105.42 227.229 105.962 223.209 103.61 222.085C96.649 220.941 89.2126 224.819 85.7274 220.595C74.9038 223.16 59.332 220.87 47.731 221.339C43.0808 221.528 38.2736 223.359 35.8087 219.105C28.49 221.255 19.7561 218.789 11.9665 219.849C7.46104 220.463 4.07149 223.396 0.0466975 222.829C0.250267 220.301 -0.529673 216.788 0.792301 215.38C15.2114 219.623 27.8131 208.704 40.2799 215.38C43.483 216.096 41.5871 211.72 44.0054 211.654C83.5764 211.106 132.816 209.98 171.413 212.4C173.027 211.988 168.889 209.518 171.413 207.93C187.591 209.018 208.485 208.078 222.075 209.42C219.181 203.125 215.703 197.416 214.624 189.304C208.001 189.486 198.775 190.58 188.547 190.05C176.203 189.409 163.081 191.42 154.274 188.558C152.792 179.857 149.996 172.472 149.803 162.485C150.35 160.546 152.819 160.531 154.274 159.503C149.756 145.039 145.094 127.426 147.568 110.334C148.758 107.548 150.997 105.815 151.294 102.138C175.622 97.3522 208.75 98.4763 239.211 96.1766C247.827 82.0367 256.991 70.6778 270.505 59.6722C276.558 54.7438 283.214 49.3195 289.878 45.5177C296.959 41.4777 305.791 38.7803 314.463 35.8326C322.783 33.0051 330.717 28.3418 338.306 26.1475C342.585 24.9105 348.18 25.048 353.205 23.914C356.605 23.1458 359.756 21.3173 362.891 20.9319C382.338 18.5463 401.098 17.405 421.006 15.7188C462.485 12.2041 516.674 9.20234 560.334 10.5032C574.807 10.9351 582.238 15.5372 591.627 21.6781C592.277 26.0518 587.403 24.9056 586.41 27.6374C592.333 41.085 598.673 54.1155 607.272 64.8878C612.477 64.3798 617.716 63.9061 622.92 63.398C626.101 56.9675 621.294 51.5015 619.94 45.5177C619.251 42.4669 619.712 38.8319 619.195 35.8326C617.088 23.6318 611.748 12.0961 611.743 0.818101C618.03 0.00569405 616.487 8.53229 617.703 12.7367C619.035 17.3338 622.165 24.2945 622.92 31.3631C623.146 33.4862 622.125 35.0276 622.175 37.3224C622.39 47.1965 628.289 56.0446 631.114 63.398C648.903 63.7244 671.563 65.2462 691.464 66.3776C703.222 67.0477 714.06 69.3401 727.972 71.5933C730.603 72.0179 733.615 74.2244 736.168 74.5729C741.947 75.3632 747.34 73.7335 753.305 73.8292C755.135 73.8562 756.415 75.1423 758.522 75.3166C763.724 75.7535 770.015 73.4095 775.656 73.0831C779.826 72.8401 784.28 73.2745 789.067 73.0831C796.94 72.7689 805.191 71.0459 811.42 70.8471C819.208 70.5992 822.445 72.2019 827.812 74.5729C831.672 92.4434 825.884 109.946 821.852 124.488C824.052 130.98 831.674 132.05 838.988 133.427C841.841 139.713 835.383 140.582 833.028 143.858C832.557 149.842 834.424 158.167 830.794 160.992C828.729 159.488 828.618 155.561 828.557 152.797C828.498 150.07 830.124 146.907 829.303 143.858C828.626 140.201 832.425 141.021 832.283 137.899C810.236 135.906 791.814 137.469 769.699 136.407C768.175 138.223 774.942 138.085 774.167 141.622C772.266 145.186 767.957 146.337 768.207 152.051H762.993C760.246 152.78 759.302 155.315 757.033 156.52C755.022 157.988 752.937 159.38 751.071 160.992C745.643 157.581 755.194 143.394 745.856 144.602C742.928 146.293 746.291 152.576 745.111 157.267C744.466 160.644 748.834 159.009 748.836 161.736C747.281 164.748 737.336 164.004 738.405 159.503C737.89 160.546 736.649 164.603 734.682 161.736C733.032 162.323 734.824 166.348 731.7 165.462C728.538 165.894 728.246 163.454 727.231 161.736C726.243 158.263 728.889 158.43 730.211 157.267C726.007 150.581 717.462 151.425 707.114 152.051C707.041 148.502 708.763 146.747 709.349 143.856H713.82C715.929 143.979 713.199 139.264 715.309 139.386C722.007 137.487 728.98 145.498 735.425 146.092C737.338 146.266 739.475 142.879 740.642 146.092C742.315 145.778 740.662 142.138 742.131 141.622C746.121 142.351 753.619 139.57 753.308 144.602C757.384 141.227 764.308 140.702 767.464 136.407C758.988 134.635 746.977 140.081 743.622 134.171C752.589 133.029 763.67 132.848 770.444 133.425C764.764 130.747 758.125 131.935 751.816 131.935C739.023 131.935 727.871 132.445 716.8 132.681C713.236 132.757 708.966 133.626 705.623 133.425C701.76 133.194 698.506 132.35 693.703 132.681C687.94 133.078 680.545 132.269 674.332 132.681C669.466 133.005 666.952 133.719 663.156 131.191C663.921 116.808 669.726 107.464 668.37 90.9585C666.261 90.8382 668.991 95.5531 666.881 95.4304C660.713 96.1348 660.571 90.8137 656.45 89.4687C657.961 93.921 658.196 99.6446 657.939 105.862C654.38 110 655.415 118.733 649.745 120.762C646.343 120.689 642.188 121.366 640.805 119.27C637.656 121.832 639.995 129.885 636.334 131.935C631.289 131.191 634.862 128.04 634.845 124.486C634.433 122.871 631.963 127.009 630.374 124.486C629.79 121.17 631.365 120.014 631.119 117.034C624.863 116.737 619.445 117.282 613.983 117.78C614.79 119.457 618.665 118.065 617.708 121.506C607.905 121.329 590.648 122.269 579.709 120.76C579.086 116.163 585.086 118.19 585.669 114.801C593.658 115.245 597.361 115.102 606.532 114.801C601.494 111.215 595.411 115.677 589.395 113.311C589.358 109.001 594.308 111.966 596.1 111.818C602.72 111.283 610.024 110.351 616.963 110.329C610.875 109.02 603.593 109.504 597.592 109.585C591.943 109.659 586.096 111.328 583.435 108.093C582.341 103.77 586.273 104.472 588.649 103.623C590.082 102.664 586.891 102.082 588.649 99.8974C599.708 97.0479 610.907 94.3407 622.923 92.4483C623.06 91.8494 623.666 91.7095 623.663 90.9634ZM449.317 17.9523C422.318 19.4887 397.019 21.4645 373.322 24.6577C363.519 25.9782 353.877 26.9207 345.009 29.1272C331.892 32.3915 317.304 38.2453 305.521 43.2817C291.2 49.4055 279.131 56.8153 268.268 67.1213C264.738 70.474 262.742 75.3509 257.837 77.5525C255.367 82.1693 250.957 87.4953 248.151 91.7095C247.639 92.4802 243.889 95.0402 246.66 95.4329C252.485 95.2095 259.823 94.5223 263.054 93.943C256.353 90.1387 261.02 81.7839 263.054 76.8064C269.941 71.4534 274.368 63.5109 282.424 57.4363C289.25 52.2943 299.779 47.5917 309.992 44.0279C324.809 38.8564 342.333 34.1734 357.677 32.1068C372.083 30.1678 386.409 27.4189 400.144 26.1475C409.486 25.2836 423.363 23.6318 427.712 29.8709C423.488 47.5033 417.744 63.6115 412.81 80.5322C408.559 84.4789 400.659 84.7734 394.184 86.4939C463.778 81.7938 547.585 78.122 622.172 70.8471C632.189 69.8727 642.259 72.04 651.229 67.8675C634.641 68.4393 621.956 66.6231 605.781 67.8675C597.059 68.54 587.244 68.8811 576.722 69.3597C535.427 71.2349 488.859 77.8569 446.337 79.7885C440.905 80.0339 435.766 81.5827 431.435 80.5346C422.998 78.4877 423.091 71.8976 424.729 64.8878C427.101 54.7536 428.666 48.0604 432.18 38.8123C438.202 22.974 442.133 22.3211 459.003 21.6781C497.031 20.23 536.54 17.5326 572.997 20.1882C572.886 18.2247 570.468 19.0003 569.271 18.696C564 17.3632 561.04 17.4884 555.862 17.9523C554.528 13.824 552.296 14.2658 545.431 14.2265C544.612 18.0259 552.21 13.4067 551.391 17.2061C548.863 17.4099 545.35 16.6318 543.94 17.9523C543.145 16.514 543.423 14.0007 540.215 14.9726C533.982 13.1981 534.981 20.4091 530.529 16.4625C530.708 13.3503 533.301 17.3092 534.255 14.9726C505.62 14.1332 474.658 16.5116 449.317 17.9523ZM548.411 26.8912C527.257 26.4298 482.955 26.3243 458.259 28.3835C453.075 28.8155 446.178 30.0795 443.357 32.1093C435.931 37.4525 427.952 67.433 434.415 75.319C449.057 77.2114 457.607 73.5249 470.179 70.1034C480.211 67.3741 493.094 64.2546 501.473 61.9082C504.61 61.0295 507.832 61.1792 510.412 60.4184C515.872 58.8058 520.458 55.2469 526.058 55.2028C529.619 55.1733 534.421 57.7062 538.726 58.1824C545.64 58.9482 548.583 60.2416 553.626 61.162C568.057 63.7981 583.052 65.1455 600.567 64.8878C598.173 55.7378 591.369 49.4496 587.156 41.7919C584.956 37.7986 584.477 32.7941 580.448 29.8709C579.172 27.4238 574.176 28.6952 570.762 28.381C570.348 29.2916 570.267 33.4297 567.785 34.3403C565.599 34.8214 557.984 36.8659 558.099 32.8505C561.665 32.9413 565.102 32.8996 567.039 31.3607C564.351 31.0662 560.802 31.6356 560.334 29.1247C564.314 28.2411 566.789 30.2464 569.273 27.6349C564.434 28.3614 554.609 27.0287 548.411 26.8912ZM399.398 41.7919C401.415 39.0921 405.756 38.7141 407.595 35.8326C405.167 34.3526 403.134 39.0896 400.144 35.8326C392.791 40.1524 386.434 45.4661 380.027 50.7333C387.824 46.8578 392.916 40.2775 400.89 36.5787C404.125 39.2344 397.355 40.4911 399.398 41.7919ZM414.301 35.0865C404.961 41.8901 394.442 47.5131 386.733 55.9464C397.713 50.2866 406.921 42.8547 416.535 35.8326C415.51 35.8645 414.899 35.4816 414.301 35.0865ZM388.224 39.5584C387.645 40.3094 383.743 41.4188 385.987 42.538C388.06 39.6443 392.018 38.6331 394.184 35.8326C390.704 35.5798 389.791 37.8968 388.224 39.5584ZM383.007 39.5584C385.193 39.5069 385.774 37.855 386.733 36.5787C384.962 37.0426 383.265 37.5801 383.007 39.5584ZM353.205 49.2435C357.819 46.7277 364.093 42.3736 367.362 39.5584C367.946 39.0552 369.844 39.1019 368.108 38.0661C363.276 41.9293 357.75 45.0955 353.205 49.2435ZM351.714 45.5177C356.183 44.2733 359.224 41.6029 362.145 38.8123C357.017 39.3964 354.579 42.6706 351.714 45.5177ZM347.989 44.774C350.098 42.9087 353.063 41.8999 354.694 39.5584C351.699 40.0615 347.226 42.9847 347.989 44.774ZM355.44 88.7274C360.946 88.3151 366.847 89.4417 368.851 87.2376C359.776 84.9158 363.067 75.0662 365.871 64.8878C368.422 55.62 373.95 45.6502 372.576 41.0482C365.888 55.9636 364.053 75.7338 355.44 88.7274ZM336.814 46.2614C337.967 44.4353 340.363 43.8511 341.286 41.7919C338.725 41.7551 335.539 44.9384 336.814 46.2614ZM397.91 57.4387C404.937 54.7806 407.71 47.869 416.535 47.0075C417.541 45.0342 420.462 44.9753 420.261 41.7919C412.11 46.308 404.144 51.0082 397.91 57.4387ZM383.753 44.0279C379.179 44.909 381.887 47.6162 383.753 44.0279V44.0279ZM360.656 48.4973C362.349 48.6299 364.998 45.9816 363.636 45.5177C362.962 46.8308 360.894 46.7473 360.656 48.4973ZM345.754 49.9871C347.944 49.8988 351.452 47.2996 350.223 46.2614C349.468 48.2372 346.779 48.2813 345.754 49.9871ZM311.481 52.9692C314.046 52.768 317.62 49.7123 316.698 48.4973C314.674 49.7049 312.499 50.7554 311.481 52.9692ZM362.891 49.2435C362.248 53.4675 368.122 50.3676 365.125 48.4973C365 49.3662 363.948 49.3073 362.891 49.2435ZM317.441 52.9692H318.932V51.477H317.441V52.9692ZM402.378 81.2783C410.793 80.0708 410.536 73.2794 412.81 64.8878C414.276 59.4759 417.29 53.8406 415.789 51.477C407.752 57.8437 401.917 66.4145 402.378 81.2783ZM314.461 82.7682C312.403 83.4407 311.837 85.6079 311.481 87.9838C310.309 88.6072 307.037 90.9119 309.247 92.4532C310.625 90.853 314.728 91.9771 315.952 90.2197C313.634 90.0528 314.691 86.5111 314.461 84.258C318.388 74.0305 320.661 62.1487 324.892 52.2231H322.655C320.563 63.0421 316.229 71.6227 314.461 82.7682ZM330.852 55.9464C328.868 66.9569 321.343 76.1314 322.658 87.9813C331.522 88.9827 341.886 85.4754 352.46 85.7478C357.829 77.2065 360.747 66.2206 363.636 55.2003C353.159 53.9412 340.552 53.2343 330.852 55.9464ZM317.441 56.6926C317.277 56.1133 316.818 55.8262 315.952 55.9464C315.771 56.6018 315.155 57.3454 314.461 57.4387C306.247 58.526 298.955 57.6817 292.853 61.1645C288.436 63.6852 284.369 68.8787 281.679 72.3394C278.52 76.3965 273.833 81.5041 274.228 87.9838C282.756 92.0262 292.917 90.4308 304.775 90.2197C311.047 81.0893 314.559 69.2051 317.441 56.6926ZM373.322 83.5118C380.108 86.1945 386.387 82.2699 393.439 82.7682C397.328 69.4432 388.131 59.6403 377.048 56.6926C376.405 65.9211 368.13 75.3804 373.322 83.5118ZM513.392 63.398C513.24 67.6122 515.992 68.2234 519.355 67.1213C519.475 63.4495 516.39 61.8345 513.392 63.398ZM529.04 64.8878C526.772 64.176 526.043 61.9254 522.335 62.6519C521.047 66.6967 528.035 67.7693 529.04 64.8878ZM510.412 67.8675C510.925 65.3689 509.162 65.1455 507.433 64.8878C507.523 66.7826 508.517 67.7767 510.412 67.8675ZM537.235 64.8878C532.464 64.0288 535.599 67.1631 537.235 64.8878V64.8878ZM505.198 67.8675C504.617 67.703 504.332 67.2441 504.453 66.3776H500.727C500.276 69.0137 504.587 70.6925 505.198 67.8675ZM497.004 70.1034C497.749 67.6171 495.969 67.6588 494.021 67.8675C493.798 69.831 495.054 70.3121 497.004 70.1034ZM657.934 69.3573H664.642C677.661 81.3814 671.254 109.546 667.62 126.722C691.27 127.934 714.315 128.251 742.128 128.214C742.114 124.225 742.29 120.429 745.852 120.019C747.532 121.818 745.785 127.038 748.834 127.468C759.162 128.597 779.274 128.091 795.027 128.214C785.766 95.504 753.629 81.698 720.521 75.3166C727.94 82.0564 743.956 84.1647 738.4 101.392C732.05 97.9118 724.239 93.2632 726.481 83.5118C713.217 70.4004 680.704 68.2798 657.934 69.3573ZM485.082 70.8471C484 71.257 481.231 69.9783 481.356 71.5933C482.438 71.1858 485.207 72.4621 485.082 70.8471ZM646.76 74.5729C647.525 77.5722 645.6 77.8839 644.523 79.0424C647.108 78.6938 644.952 83.0872 646.76 83.5143C647.133 79.17 650.147 77.4642 651.229 73.8292C649.448 74.2833 645.823 72.8941 645.271 74.5729H646.76ZM629.623 79.0424C630.067 72.6658 632.039 76.2566 628.132 75.3166C622.373 73.9323 613.252 76.9978 605.035 77.5525C543.121 81.7299 476.071 84.3169 413.555 89.4711C409.991 92.1194 409.02 97.3547 408.338 102.882C450.715 99.8042 494.581 97.151 535.743 94.6867C549.159 93.8841 565.975 91.8323 575.231 91.7071C595.711 91.4322 612.165 88.8796 630.366 87.2376C630.918 83.7082 629.53 82.1153 629.623 79.0424ZM806.201 76.0627C787.963 77.1991 765.203 77.9894 752.557 79.0424C760.251 83.4848 768.781 79.5578 780.125 79.0424C791.606 78.522 800.553 78.2987 809.181 76.8064C810.371 79.8695 810.8 78.2005 812.907 76.8064C812.061 73.358 807.935 75.9547 806.201 76.0627ZM784.596 84.258C784.682 83.3498 784.819 82.4933 786.087 82.7682H792.047C787.816 81.0378 780.38 82.5129 774.91 82.022C774.898 83.2517 772.843 82.4393 772.674 83.5118C777.679 84.2064 782.249 82.0441 784.596 84.258ZM643.034 82.7682C641.725 83.1977 638.656 81.8674 638.563 83.5143C639.875 83.0848 642.941 84.4126 643.034 82.7682ZM786.087 85.7478C781.314 84.8888 784.451 88.023 786.087 85.7478V85.7478ZM773.419 90.9634C774.153 92.3845 776.321 92.571 777.89 93.943C779.561 95.4034 780.61 98.2137 782.359 99.9023C783.237 100.749 784.758 100.732 785.339 101.392C789.972 106.645 791.601 112.486 796.516 116.293C795.988 113.529 797.789 113.097 797.261 110.334C795.267 109.303 794.47 107.607 795.77 105.118C793.46 105.042 793.644 107.462 790.556 106.608C791.571 101.866 784.309 102.271 786.83 98.4125C785.511 98.2432 783.1 99.1636 783.85 96.9227C783.276 95.2488 789.646 96.9006 786.83 95.4329C785.05 94.9788 781.425 96.368 780.87 94.6867C781.628 91.2236 789.445 94.8168 791.301 92.4508C789.962 92.5465 789.558 91.712 789.81 90.2148C790.688 90.0995 791.924 90.3449 792.045 89.4687C786.565 89.0686 784.733 88.9704 780.87 90.9609C783.154 93.1061 777.236 93.7909 776.399 91.7071C779.872 90.1068 777.518 90.3645 776.399 87.9813C777.182 87.2008 782.786 87.5076 780.87 86.489C777.626 86.9701 772.448 85.5195 770.439 87.2352C774.717 86.2755 773.145 90.4283 773.419 90.9634ZM649.74 92.4532C649.978 93.3147 652.045 95.963 652.72 93.943C650.095 92.7183 649.306 89.9816 651.229 87.9838C647.608 85.6987 647.299 92.2471 646.014 94.6892C648.56 95.2463 646.961 91.6605 649.74 92.4532ZM352.46 92.4532C350.169 96.6183 346.99 99.8974 347.245 106.608C350.402 106.787 352.521 105.923 354.697 105.118C356.374 102.244 353.819 101.674 353.951 98.4125C355.815 96.0563 357.782 93.8007 362.148 93.943C365.527 93.5405 364.137 97.9143 367.362 97.6664C369.623 97.6247 373.992 95.4181 374.813 98.4125C375.546 104.858 367.948 102.973 365.128 105.862C376.979 103.309 393.164 105.088 404.615 102.138C403.955 95.7667 406.835 92.9318 409.086 89.4736C388.349 90.4922 373.923 91.9157 352.46 92.4532ZM642.289 91.7095C639.821 97.3252 644.265 95.347 642.289 91.7095V91.7095ZM298.816 95.4329C297.425 100.749 294.447 104.475 293.599 110.334C295.931 110.181 299.068 110.837 300.304 109.587C302.323 106.137 298.84 104.919 299.561 100.648C302.882 94.6745 307.728 97.6639 312.97 99.1587C315.979 100.015 321.051 98.3782 320.421 102.138C318.51 105.938 313.549 106.689 309.99 108.844C322.27 109.057 334.17 106.843 342.774 106.608C344.273 101.898 344.942 96.3582 347.989 93.1969C329.702 93.2485 316.013 95.774 298.816 95.4329ZM806.201 95.4329H807.692V93.943H806.201V95.4329ZM798.753 120.765C798.267 124.751 800.855 128.707 798.753 131.94C792.538 132.431 784.353 130.953 779.379 132.683C795.054 134.203 808.838 132.813 823.34 132.683C822.504 130.538 817.886 132.178 817.378 129.704C817.707 123.079 818.94 117.361 820.358 111.823C816.414 111.09 818.447 103.709 818.869 100.648C816.1 99.4434 815.757 95.8133 812.907 94.6892C813.471 105.717 811.217 122.76 798.753 120.765ZM619.192 98.4125C621.701 97.9413 626.111 99.3722 627.386 97.6664C626.003 97.065 624.377 96.7043 623.663 95.4329C624.348 98.6015 618.743 95.482 619.192 98.4125ZM157.254 105.118C157.987 120.581 165.419 135.653 169.174 150.564C171.847 151.717 173.203 147.906 174.39 146.838C180.753 141.119 186.374 137.06 193.761 132.683C209.89 123.131 245.294 120.173 264.542 128.214C271.039 120.556 277.016 112.376 289.876 111.077C290.481 104.482 292.669 99.4679 296.581 96.1766C247.033 99.0163 203.086 102.57 157.254 105.118ZM361.4 100.648V97.6688H359.165C358.959 99.6127 358.913 101.397 361.4 100.648ZM484.336 101.392C476.441 101.76 468.833 101.009 461.239 101.392C459.859 101.463 458.343 102.74 456.768 102.884C437.947 104.595 425.404 105.115 407.595 105.864C406.447 108.441 406.935 112.655 406.847 116.295C430.738 115.689 462.446 114.02 487.316 112.57C496.432 112.037 506.726 111.909 511.158 109.59C512.887 108.684 514.003 106.689 515.627 104.374C516.603 102.983 520.154 99.7281 517.861 99.1587C506.422 99.1513 495.003 100.896 484.336 101.392ZM304.032 103.628C304.984 104.647 307.549 104.647 308.501 103.628C308.361 101.532 307.206 100.455 304.775 100.648C304.54 101.655 303.716 102.07 304.032 103.628ZM596.096 102.884C600.236 104.318 604.614 102.239 608.015 102.138C611.643 102.03 614.517 103.891 617.701 101.392C608.643 98.9967 600.797 104.512 596.096 102.884ZM613.232 105.118C610.971 105.354 608.555 105.975 607.272 106.608C613.002 107.558 618.763 105.665 624.409 105.862C623.332 103.925 617.196 104.708 613.232 105.118ZM593.861 106.608C598.901 107.084 601.97 107.99 606.527 105.862C602.215 105.577 597.994 105.152 593.861 106.608ZM346.5 109.587C345.072 111.389 346.029 115.574 345.754 118.529C365.473 118.998 385.774 116.177 403.124 117.039V106.608C384.793 107.423 366.614 108.908 346.5 109.587ZM593.116 106.608C584.561 105.776 587.781 108.834 593.116 106.608V106.608ZM617.701 110.334C620.311 110.456 622.471 110.135 623.663 108.844C621.409 109.074 617.868 108.017 617.701 110.334ZM294.347 112.57C292.632 114.756 291.529 119.221 292.856 122.252C311.635 120.345 324.816 119.579 342.029 119.272C342.085 116.099 343.275 114.062 342.774 110.334C327.948 110.569 308.962 112.368 294.347 112.57ZM151.294 117.039H154.274C154.674 114.403 153.641 113.2 152.037 112.57C152.577 114.845 151.277 115.284 151.294 117.039ZM607.27 114.057C607.267 114.069 607.998 114.03 608.015 114.057C610.399 118.028 607.687 111.566 607.27 114.057ZM616.212 113.313C615.131 113.721 612.362 112.442 612.487 114.057C613.568 113.649 616.337 114.928 616.212 113.313ZM266.777 133.429C269.489 134.195 271.388 135.773 274.228 136.409C277.6 130.344 281.179 124.483 289.13 122.998V114.803C277.799 117.132 271.721 124.714 266.777 133.429ZM635.583 122.252C635.151 120.262 637.788 117.599 635.583 116.293C636.015 118.283 633.381 120.949 635.583 122.252ZM603.547 118.529C606.527 118.507 609.654 119.574 611.741 117.783C606.12 117.27 598.963 118.256 593.859 117.039C595.5 120.095 600.518 118.551 603.547 118.529ZM589.39 117.783C588.308 118.19 585.539 116.911 585.664 118.529C586.746 118.121 589.515 119.4 589.39 117.783ZM345.754 123.744C347.135 136.166 347.162 160.119 347.989 172.17C348.241 175.827 347.709 180.255 349.48 181.109C357.186 183.784 367.615 182.599 377.791 182.599C387.94 182.599 398.209 183.126 406.104 182.599C404.108 166.363 403.489 146.219 403.124 128.96C403.073 126.574 404.444 122.205 401.633 120.765C387.118 122.939 363.582 122.409 345.754 123.744ZM151.294 123.744C152.13 127.127 152.464 131.014 154.274 133.429H158.745C158.252 129.451 157.038 126.194 155.763 122.998C153.926 122.9 152.174 122.885 151.294 123.744ZM292.856 125.978C294.114 146.264 293.891 163.96 295.836 181.855C312.8 181.649 332.186 182.179 345.009 181.855C342.419 162.431 343.608 143.61 342.029 123.744C323.163 124.186 309.09 125.082 292.856 125.978ZM223.563 128.96C235.525 127.509 244.364 129.625 253.366 128.214C243.001 127.578 232.278 125.902 223.563 128.96ZM288.384 127.468C281.728 130.001 280.835 138.297 274.973 141.625C262.352 136.132 249.866 131.859 233.251 131.94C195.285 132.116 169.49 154.159 161.725 185.578C175.18 185.367 183.394 186.594 197.487 186.324C197.259 171.443 200.359 159.89 210.152 155.033C211.81 153.308 213.059 155.286 215.369 155.033C226.87 147.174 247.109 146.912 263.054 150.564C274.87 156.378 277.975 170.906 278.699 187.814C284.46 187.328 288.107 189.311 292.11 187.07C289.925 185.033 282.312 188.425 282.424 184.088C283.42 181.185 288.951 181.143 291.364 181.855C290.516 163.641 289.562 145.908 288.384 127.468ZM257.091 129.704C256.635 129.485 254.224 127.851 254.111 129.704C255.499 128.989 256.601 131.935 257.091 129.704ZM154.274 138.643C154.171 142.221 154.983 144.887 156.508 146.838H163.214C162.981 143.596 161.259 141.841 160.979 138.643C157.416 138.306 157.835 138.306 154.274 138.643ZM562.568 177.383C557.177 176.858 562.409 169.637 560.331 166.208C562.438 165.594 562.261 167.259 564.057 166.954C562.097 163.142 561.68 161.221 559.588 157.269C560.184 153.644 564.479 153.718 564.802 149.82C562.227 148.742 561.29 150.65 559.588 149.074C559.137 146.138 560.684 145.203 561.822 143.858C564.167 143.004 563.632 145.027 564.802 145.348C564.559 133.888 547.359 138.694 538.726 139.389C537.117 142 534.618 143.726 532.02 145.348C528.287 152.544 524.218 159.402 523.08 169.188C523.524 170.731 522.158 174.082 523.824 174.403V168.444C525.415 165.815 524.299 160.477 529.04 160.995C525.523 179.913 528.42 198.852 537.235 212.4C537.168 213.573 535.334 212.984 535.746 214.633C536.827 218.676 548.193 226.28 551.391 227.298C560.456 230.189 567.731 225.182 572.253 221.339C573.931 219.913 576.688 219.135 577.47 218.359C582.846 213.021 584.872 203.809 586.41 197.499C580.717 197.232 576.977 195.013 576.725 189.304C577.473 191.79 575.69 191.746 573.745 191.54V180.365H576.725C576.393 176.723 575.189 173.952 575.233 169.936C574.117 169.809 572.484 170.201 572.253 169.19C575.118 165.226 570.465 159.503 569.273 155.033C568.263 157.748 565.504 158.715 564.805 161.739C566.902 162.32 570.068 164.299 567.785 166.954C568.898 167.079 570.532 166.687 570.762 167.698C571.51 170.005 566.799 170.592 569.273 172.167C569.453 170.859 570.556 170.471 572.253 170.68C571.716 172.955 573.016 173.395 572.999 175.149C572.474 176.74 566.737 179.786 570.019 180.363C571.55 179.661 571.559 177.432 573.745 177.383C572.347 181.45 569.482 184.047 567.039 187.068C568.942 187.873 569.646 183.86 570.762 186.324C568.677 192.431 562.433 194.382 560.334 200.479C548.527 203.338 543.425 184.623 545.431 172.167C546.155 167.681 547.828 161.731 550.646 160.249C553.532 163.061 549.63 168.132 549.157 172.913C548.009 184.518 552.022 196.657 559.588 196.009C558.163 193.204 558.163 192.855 559.588 190.05C552.505 189.252 549.981 167.992 558.842 166.954C557.528 172.074 555.833 182.316 561.077 184.834C556.919 181.737 563.586 179.086 562.568 177.383ZM754.048 150.564C757.693 145.763 764.646 144.273 769.696 140.879C763.719 142.538 752.464 144.803 754.048 150.564ZM608.761 143.858C595.944 144.089 583.776 144.504 572.999 143.858C583.543 147.609 597.758 147.447 608.761 143.858ZM722.009 146.094C721.754 144.116 720.055 143.578 718.284 143.112C717.81 145.824 719.829 146.043 722.009 146.094ZM612.487 147.584C615.368 148.188 620.271 146.983 618.447 145.348C617.36 146.993 613.576 145.94 612.487 147.584ZM567.782 152.8C568.918 150.475 567.309 149.594 566.293 147.584C566.249 148.038 566.183 148.465 565.548 148.33V149.82C568.479 148.625 565.808 153.035 567.782 152.8ZM610.998 147.584C606.223 146.723 609.359 149.859 610.998 147.584V147.584ZM737.657 150.564C736.401 150.259 734.307 147.054 733.186 149.074C734.589 149.231 737.059 152.061 737.657 150.564ZM815.144 149.82C814.062 150.227 811.293 148.949 811.418 150.564C812.5 150.156 815.269 151.435 815.144 149.82ZM173.645 154.289C173.824 153.227 174.874 153.033 175.136 152.053C173.601 151.401 171.791 153.985 173.645 154.289ZM266.777 158.759C264.432 159.12 265.089 156.471 262.308 157.269C258.183 159.851 257.447 165.82 252.622 167.698C252.134 160.754 258.386 160.548 258.582 154.289H254.857C252.966 155.627 256.62 158.862 253.366 159.503C250.999 158.641 247.303 159.11 247.406 155.779C246.748 153.386 249.861 154.758 249.64 152.8C239.702 152.269 229.935 152.78 224.307 158.015C222.494 159.701 219.112 165.148 218.347 167.698C213.849 182.709 221.393 197.705 225.798 204.948C228.596 209.55 234.382 216.707 239.209 215.38C237.992 215.713 237.992 211.317 239.209 211.654C243.052 212.282 247.178 212.626 251.874 212.4C252.443 210.483 253.684 209.241 255.6 208.674C266.156 207.805 268.852 199.077 272.737 191.537C271.738 191.049 271.351 189.945 271.245 188.558C276.516 187.294 273.593 178.296 272.737 174.403C269.815 174.958 268.729 177.349 267.522 179.619C268.398 179.734 269.636 179.489 269.757 180.363C267.01 184.125 265.886 186.813 267.522 190.791C260.245 195.148 251.107 206.279 240.7 200.476V197.497C245.551 198.395 247.776 197.34 253.366 197.497C257.28 194.458 257.729 187.954 261.56 184.832C258.425 183.703 261.839 180.625 258.58 179.619C260.042 177.611 258.045 174.087 257.091 172.167C259.715 167.097 264.606 164.284 266.777 158.759ZM157.997 153.543C158.887 156.876 158.34 161.645 162.468 161.739C164.533 159.829 165.995 157.318 166.939 154.289C164.494 151.938 161.838 153.529 157.997 153.543ZM806.947 158.759C805.882 158.58 805.691 157.532 804.713 157.269C804.06 158.803 806.645 160.614 806.947 158.759ZM494.767 167.698C494.07 164.237 497.669 161.206 495.513 158.759C495.778 161.788 492.363 165.005 494.767 167.698ZM590.881 160.249C594.325 160.217 598.249 160.666 599.819 158.759C596.593 159.009 592.017 157.907 590.881 160.249ZM469.434 169.934C469.534 167.816 469.672 165.793 472.416 164.718C468.997 165.405 468.526 163.145 468.691 160.249H466.454C468.369 162.556 468.411 166.736 469.434 169.934ZM593.116 162.485C597.942 161.942 599.412 164.063 602.801 162.485C601.165 161.584 592.186 161.096 593.116 162.485ZM609.507 161.739C608.391 161.866 606.757 161.473 606.527 162.485C607.64 162.357 609.276 162.75 609.507 161.739ZM610.252 162.485C610.819 163.714 616.391 163.714 616.958 162.485C614.473 161.191 613.652 162.858 610.252 162.485ZM266.777 166.208C266.762 165.094 269.546 163.162 267.522 162.485C267.304 163.366 264.523 165.297 266.777 166.208ZM157.254 174.403C157.239 170.417 160.03 169.232 160.234 165.464C158.051 165.658 157.945 163.778 155.763 163.975C154.291 166.782 154.872 173.061 157.254 174.403ZM583.43 189.304C611.888 189.991 636.324 190.399 666.131 191.54C665.768 187.203 672.792 190.254 672.836 186.324C670.119 187.981 671.406 185.227 669.856 184.088C668.728 183.261 664.299 183.816 667.622 179.619C670.271 178.46 668.071 182.149 669.856 181.855C668.691 178.362 672.238 177.619 670.602 175.893C648.852 176.028 622.243 176.355 602.801 175.149C596.763 174.776 586.871 177.538 585.664 172.17C589.042 171.834 591.887 170.928 596.096 172.17C596.223 171.055 595.828 169.421 596.841 169.19C619.494 168.179 643.071 169.352 665.385 167.7C638.016 165.207 599.419 169.077 579.702 165.464C581.409 172.901 582.64 183.251 583.43 189.304ZM493.278 175.893C492.712 173.291 495.532 170.268 493.278 168.444C494.169 171.372 490.995 174.042 493.278 175.893ZM795.773 169.188C789.744 171.09 800.698 167.897 795.773 169.188V169.188ZM805.456 168.444C803.435 168.905 799.545 167.499 798.753 169.188C800.455 170.673 804.004 169.487 805.456 168.444ZM261.562 172.167C261.452 171.178 264.591 169.919 262.308 169.188C262.416 170.179 259.801 171.961 261.562 172.167ZM267.522 174.403C269.185 173.547 272.741 170.731 271.248 169.188C270.227 171.149 268.111 172.013 267.522 174.403ZM777.89 169.188C773.118 168.329 776.254 171.463 777.89 169.188V169.188ZM792.047 169.188C783.492 168.356 786.71 171.414 792.047 169.188V169.188ZM808.438 172.913C814.209 172.614 822.357 171.09 827.809 172.913C827.875 176.703 828.135 180.689 826.32 182.599C831.194 182.14 832.489 182.063 836.749 181.852C837.472 177.611 837.948 173.117 839.729 169.934C829.401 171.028 817.228 170.282 808.438 172.913ZM203.447 175.149C203.567 174.629 203.187 170.812 202.704 172.913C202.046 175.751 203.101 176.644 203.447 175.149ZM657.934 172.167C648.847 171.303 651.503 174.376 657.934 172.167V172.167ZM669.856 172.167C668.775 172.577 666.006 171.298 666.131 172.913C667.212 172.506 669.981 173.785 669.856 172.167ZM771.185 172.913C770.285 173.071 770.726 173.741 771.185 174.403C779.107 175.584 787.829 171.583 791.301 176.639C790.048 179.111 790.102 182.891 788.321 184.832C800.928 185.544 810.954 184.947 823.34 184.088C822.992 181.339 819.019 182.662 817.378 182.599C810.832 182.341 805.458 183.968 800.987 184.088C799.515 183.57 801.171 179.931 799.496 179.619C799.704 181.315 799.317 182.419 798.007 182.599C793.845 182.626 792.869 175.127 796.516 173.66C798.856 173.306 798.485 175.662 800.241 175.893C799.449 173.115 803.035 174.715 802.476 172.167C791.581 172.609 781.601 173.414 771.185 172.913ZM739.892 175.893C741.913 176.355 745.805 174.948 746.597 176.639C746.86 181.337 747.242 182.586 746.597 187.068C748.684 187.925 750.47 187.925 752.557 187.068C756.928 189.265 765.07 187.313 771.185 187.068C776.375 186.859 780.735 188.442 783.85 186.324H758.517C757.232 185.87 758.576 182.79 757.028 182.599C757.479 185.534 755.36 185.897 753.303 186.324C749.656 185.512 750.973 177.982 752.557 175.893C755.498 173.642 765.505 175.932 769.694 172.913C761.772 174.884 747.507 171.789 739.892 175.893ZM465.711 178.873C469.372 179.57 468.713 176.487 467.199 175.149C467.837 177.525 466.027 177.454 465.711 178.873ZM710.835 176.639C712.378 176.195 715.728 177.56 716.049 175.893C713.116 176.242 712.182 174.332 710.835 176.639ZM734.677 175.149C729.98 175.915 722.078 173.478 719.775 176.639C724.94 175.974 732.745 176.877 734.677 175.149ZM704.13 176.639C703.897 180.844 705.452 183.264 704.875 187.814C702.945 189.113 698.523 187.92 698.913 191.537C709.69 188.784 727.717 191.778 739.892 188.558C732.622 187.674 726.108 188.953 716.049 188.558C715.598 183.782 712.366 186.98 709.344 187.068C706.381 184.282 708.736 177.631 706.364 175.893C706.239 176.762 705.187 176.703 704.13 176.639ZM202.704 183.345C202.248 181.563 203.638 177.938 201.956 177.385C202.233 180.336 200.212 181.938 202.704 183.345ZM523.824 188.558C523.483 185.895 524.603 177.884 523.08 178.875C523.421 181.541 522.3 189.549 523.824 188.558ZM462.728 182.599C460.631 184.052 456.781 187.174 453.788 187.814C445.822 189.525 431.837 187.814 419.515 187.814C398.349 187.814 380.658 188.224 365.871 187.814C341.881 187.149 320.615 185.119 298.07 187.07C306.718 189.527 315.92 188.558 324.892 188.558C333.859 188.558 342.87 188.334 351.714 188.558C393.181 189.606 448.429 191.901 484.336 190.05C486.607 189.932 490.526 191.604 491.787 188.558C489.636 188.867 486.222 187.9 482.845 187.814C475.109 187.618 464.371 190.261 461.239 184.834C460.778 182.648 469.52 183.364 464.965 181.855C464.715 178.519 462.61 182.682 462.728 182.599ZM360.654 203.458C358.236 200.528 357.38 196.503 353.951 194.52C333.295 192.875 318.851 193.285 298.07 193.03C295.47 200.363 292.581 207.405 289.13 213.89C295.843 213.907 305.001 214.054 308.501 213.144C306.848 212.834 307.787 209.059 309.247 209.42C326.616 210.645 349.347 208.976 368.853 211.654C366.658 208.306 363.158 206.492 360.654 203.458ZM421.752 195.263C418.237 197.391 418.068 202.062 415.792 204.948C412.778 208.765 407.983 209.911 405.358 213.887C424.653 214.655 440.573 213.828 459.005 213.887C461.848 213.777 462.593 215.762 464.965 216.123C466.75 215.178 467.163 212.856 470.179 213.144C491.812 216.153 511.85 208.274 529.786 215.38C525.795 208.937 521.749 202.553 519.355 194.517C485.069 196.918 458.949 195.116 421.752 195.263ZM393.439 198.989C396.754 199.571 397.91 197.997 400.89 198.243C400.134 194.785 394.908 198.341 393.439 198.989ZM615.467 197.499C614.306 203.051 610.206 209.609 610.252 213.89C625.329 209.926 646.743 211.514 666.876 212.4C684.697 213.183 701.547 211.187 713.815 214.633C710.531 207.373 703.656 206.492 701.15 197.499C668.301 199.22 643.39 198.056 615.467 197.499ZM389.713 199.735C388.96 199.794 386.247 199.512 386.733 201.969C387.851 201.198 393.132 199.455 389.713 199.735ZM589.39 199.735C588.792 204.244 592.804 200.231 589.39 199.735V199.735ZM742.128 204.205C740.814 201.21 733.451 204.244 734.677 208.674C732.352 207.432 731.069 211.445 732.443 209.418C739.97 207.26 746.519 204.124 752.559 200.479C748.137 202.423 745.511 201.924 742.128 204.205ZM368.851 203.458C369.501 201.731 365.059 201.745 367.36 202.715C368.409 202.656 368.211 204.882 368.851 203.458ZM394.927 203.458C396.315 203.355 397.419 202.97 397.91 201.969C396.21 201.76 395.109 202.148 394.927 203.458ZM588.644 205.694C589.719 206.526 590.462 206.497 590.881 204.948C589.854 204.98 589.243 204.597 588.644 204.205V205.694ZM722.009 207.928C724.8 207.739 726.802 206.76 727.969 204.948C725.86 205.82 723.044 205.982 722.009 207.928ZM388.224 208.674C390.071 208.785 391.839 208.812 391.947 207.184C390.1 207.074 388.332 207.044 388.224 208.674ZM738.4 210.164H739.892V208.674H738.4V210.164ZM370.342 215.38H376.302C375.473 213.2 370.445 211.342 369.596 211.654C371.213 211.529 369.935 214.297 370.342 215.38ZM181.096 212.4C178.817 212.937 178.381 211.637 176.625 211.654C175.575 214.032 181.084 213.539 181.096 212.4ZM208.664 213.89C214.641 214.062 222.448 215.181 228.035 214.633C224.255 211.929 213.893 212.167 208.664 213.89ZM312.227 215.38C316.242 215.173 321.436 216.145 323.403 213.89C318.486 214.847 313.941 211.612 312.227 215.38ZM82.0018 216.869C91.6088 216.747 103.087 217.242 109.57 216.126C99.9944 214.523 92.5972 214.111 82.0018 216.869ZM242.937 216.126C238.164 215.264 241.301 218.401 242.937 216.126V216.126ZM280.19 220.595C282.996 219.923 286.92 220.372 289.13 219.105C285.92 220.082 288.208 215.559 285.404 216.126C284.811 218.759 281.053 218.232 280.19 220.595ZM499.984 218.359C502.064 218.919 504.6 218.676 508.178 217.613C504.166 216.324 500.612 218.529 499.984 218.359ZM601.31 225.808C604.751 226.768 603.36 222.892 605.035 222.085C605.992 220.804 609.489 222.068 609.504 219.849C607.969 219.648 609.328 216.55 607.27 216.869C605.921 220.485 602.409 221.943 601.31 225.808ZM332.343 219.849C338.212 219.694 349.909 222.257 356.185 219.105C349.656 218.686 338.889 216.648 332.343 219.849ZM529.786 220.595C530.203 221.975 533.44 224.311 535 222.085C532.999 216.744 523.9 219.164 520.098 218.359C521.653 220.779 525.545 220.86 529.786 220.595ZM806.201 219.105C807.511 218.676 810.579 220.004 810.672 218.359C808.769 217.79 807.249 217.262 806.201 219.105ZM296.581 219.105C290.658 217.576 290.582 221.594 296.581 219.105V219.105ZM309.992 219.849C307.341 218.752 299.936 218.509 297.327 219.849C302.311 219.898 305.923 221.007 309.992 219.849ZM330.852 219.105C324.485 218.192 327.681 221.385 330.852 219.105V219.105ZM785.342 220.595C787.752 220.274 791.785 221.574 792.047 219.105C789.636 219.427 785.602 218.124 785.342 220.595ZM250.386 228.044C249.461 227.855 247.516 226.604 246.66 227.298C247.195 229.323 243.148 226.766 243.68 228.79C250.425 228.297 257.395 229.475 250.386 228.044ZM263.054 228.044C261.969 226.893 259.237 227.389 257.091 227.298C256.336 229.853 262.691 229.073 263.054 228.044ZM462.728 231.024C466.743 230.818 471.938 231.79 473.905 229.534C470.326 230.18 463.972 228.044 462.728 231.024ZM490.296 231.024C490.49 230.157 477.67 228.486 477.63 230.278C482.121 230.258 485.3 231.549 490.296 231.024Z" fill="black"/>
<path fill-rule="evenodd" clip-rule="evenodd" d="M543.194 34.3428H549.156C549.428 35.6092 548.575 35.7467 547.665 35.8326C553.022 38.5717 558.986 33.6187 562.567 37.3224C562.457 38.9521 560.689 38.9227 558.842 38.8147C561.103 41.0237 568.5 38.0956 570.762 40.3045C571.512 42.5454 569.104 41.625 567.782 41.7943C568.574 43.4854 572.466 42.0791 574.487 42.5405C574.185 41.1022 571.075 42.4742 572.253 39.5608H575.978C576.194 43.8119 579.866 44.6095 580.447 48.4998H576.721C574.88 40.8077 564.338 45.9497 558.842 44.0303C558.089 41.7894 560.5 42.7098 561.822 42.538C557.125 40.7807 554.748 43.294 548.411 42.538C547.766 38.7141 543.768 38.2404 543.194 34.3428ZM558.096 38.8122C557.014 39.2197 554.245 37.9409 554.371 39.5584C555.455 39.151 558.224 40.4272 558.096 38.8122ZM567.036 41.7919C565.726 42.2214 562.66 40.8936 562.567 42.538C563.877 42.1085 566.945 43.4388 567.036 41.7919Z" fill="black"/>
<path fill-rule="evenodd" clip-rule="evenodd" d="M459.002 56.6923C456.986 54.7263 454.06 58.1674 450.808 57.4385C449.874 55.1706 450.239 54.5398 451.551 52.969C449.717 53.0672 447.963 53.0819 447.082 52.2228C446.808 49.2677 447.764 45.083 446.337 43.2815C444.588 43.5195 443.541 44.4596 441.123 44.0276C441.243 43.1612 440.958 42.7022 440.377 42.5353C442.194 38.3923 450.928 41.1658 452.297 36.576C456.591 39.1973 463.378 33.2798 467.945 36.576C467.923 37.3001 467.032 37.1553 466.453 37.3222C468.833 39.6612 477.677 35.5378 476.139 41.7916C467.739 40.0981 467.049 46.1138 461.237 47.0072C461.112 48.6247 463.881 47.346 464.962 47.7534C465.173 49.7022 464.69 50.9564 462.728 50.733C463.194 52.5027 467.314 50.6177 467.942 52.2228C468.17 54.1888 466.387 54.1446 464.962 54.4588C469.066 56.6064 473.237 55.1264 477.628 55.9486C476.831 58.7319 479.479 58.0717 479.119 60.4181C473.799 61.5594 468.109 62.3252 463.471 64.1439C462.262 62.1484 461.759 61.3115 463.471 59.6744C460.803 59.8781 457.68 62.2785 455.277 60.4181V57.4385C457.075 57.7428 456.898 56.0763 459.002 56.6923ZM463.473 41.048C462.164 41.475 459.096 40.1472 459.002 41.7916C460.312 41.3621 463.38 42.6924 463.473 41.048ZM464.219 55.2025C462.909 55.632 459.841 54.3017 459.75 55.9462C461.058 55.5191 464.126 56.8469 464.219 55.2025Z" fill="black"/>
<path fill-rule="evenodd" clip-rule="evenodd" d="M631.112 131.94C629.709 135.501 621.156 131.918 618.446 134.173C656.038 136.075 699.089 133.83 732.443 134.173C735.56 134.208 739.533 134.136 742.128 135.666C741.733 138.478 737.721 136.989 736.166 137.155C730.647 137.742 724.535 137.914 718.284 137.899C700.826 137.867 681.474 138.132 657.934 137.899C630.42 137.629 600.032 139.546 573.742 138.645C577.519 134.959 570.259 137.136 570.762 132.686C585.024 130.239 599.426 132.598 613.232 131.196C616.276 130.887 619.427 129.198 622.917 128.96C625.269 128.798 630.756 127.591 631.112 131.94ZM611.741 135.663C613.286 135.221 616.636 136.584 616.957 134.917C615.049 134.24 612.732 133.712 611.741 135.663Z" fill="black"/>
<path fill-rule="evenodd" clip-rule="evenodd" d="M663.893 140.135V143.858H657.19C657.428 145.441 655.586 146.87 656.445 149.074C653.551 150.154 650.208 150.785 646.014 150.564C647.407 146.19 640.542 150.075 640.799 146.84C640.326 143.387 644.873 144.953 647.505 144.604C645.445 142.69 640.598 143.564 637.819 142.368C639.659 137.889 645.001 140.918 648.994 140.879C653.671 140.832 658.961 139.413 663.893 140.135Z" fill="black"/>
</svg>
