<svg width="369" height="166" viewBox="0 0 369 166" fill="none" xmlns="http://www.w3.org/2000/svg">
<path d="M190.66 164.426C174.51 159.566 166.161 142.6 162.591 127.234C134.991 119.202 106.481 114.53 78.8962 106.428C107.296 110.353 134.96 119.539 162.929 124.89C156.022 114.619 156.939 100.445 161.459 89.016C165.844 76.87 179.876 70.1838 191.297 77.0928C195.661 79.7876 212.577 86.2533 208.994 86.72C195.765 81.3205 216.239 97.2986 216.376 103.992C221.653 109.867 222.238 129.586 231.502 118.534C217.473 114.951 240.229 119.265 232.068 108.997C226.925 103.067 238.652 82.7341 233.032 100.271C243.588 103.574 264.606 104.768 275.722 103.312C276.945 104.746 298.432 102.716 289.323 98.4093C283.109 99.3673 297.663 95.1319 287.201 91.3164C275.532 82.1047 264.333 70.8956 249.577 67.108C244.334 68.056 234.3 68.3746 245.569 65.7567C228.975 60.9342 212.197 55.4678 195.125 52.3675C175.288 50.3935 155.443 47.4224 135.566 46.6181C124.982 50.467 132.338 71.0248 129.966 81.4129C128.743 88.1426 155.523 89.9473 138.004 88.2162C124.938 80.2287 130.512 105.88 133.729 109.477C140.922 108.507 154.282 109.171 139.393 110.487C125.465 111.249 144.698 114.393 146.339 117.77C162.776 125.767 134.122 113.754 128.472 112.963C110.039 108.748 91.4996 104.989 72.9426 101.363C59.5329 110.337 53.2578 90.4241 50.5396 80.3034C48.2474 68.0237 33.6476 53.76 27.6495 69.1767C26.6196 75.1968 28.3435 83.3959 29.9629 72.5945C37.8839 56.7856 26.2348 82.8656 29.2967 88.6629C29.2833 99.1735 33.7299 110.544 39.5433 117.923C25.4629 109.446 34.881 85.4345 16.364 82.352C10.2725 79.489 -7.62272 82.4456 8.61313 79.0278C15.6155 72.7839 -3.33854 69.1845 8.84558 68.7857C13.3355 60.8562 17.3561 77.1385 20.5303 66.8094C25.9367 54.7893 16.2906 78.9822 22.9883 74.2989C16.5142 80.9618 32.2762 93.3105 26.3927 78.7159C20.3891 65.4203 37.3189 51.5442 45.5114 66.6579C47.4466 71.9784 46.7782 58.3987 48.2185 68.1997C51.4327 81.0865 54.2254 83.0082 58.0136 94.5637C61.6761 88.547 59.7597 103.891 64.739 96.1167C61.8596 82.7107 56.9837 68.3278 60.3014 54.7437C61.5359 49.4555 69.8996 35.575 61.5237 44.4536C64.2931 36.875 40.4742 56.4113 54.3533 44.7165C68.6996 36.2924 38.3132 40.1569 31.6134 41.0503C16.8278 38.5661 13.4757 57.1399 10.9132 63.3037C-0.404562 62.7779 16.542 62.8614 12.4213 54.3538C15.2819 41.6374 28.0121 38.1406 36.3658 29.6953C49.294 21.6934 54.5535 9.29452 70.0743 8.34427C75.4851 6.30453 92.9199 6.4605 77.2357 8.76648C74.1338 16.1401 94.0766 8.78097 99.6631 10.0498C112.577 11.0669 99.3395 4.33832 101.464 5.18162C120.514 2.4913 139.921 2.97032 159.126 1.94543C165.169 7.04757 180.116 1.05201 186.612 10.3261C194.842 9.77355 183.745 12.8348 193.322 15.9986C205.383 22.6826 212.893 37.6626 226.865 39.8851C240.569 41.4625 254.242 42.8639 267.228 47.8847C278.999 53.3033 293.353 53.1506 303.427 61.6828C309.575 65.7924 318.437 58.8722 322.104 60.776C325.595 53.8881 303.325 54.3861 296.981 50.7165C280.442 45.2256 262.98 45.0552 245.9 42.6378C264.669 43.0321 283.981 43.744 301.776 50.4492C315.058 55.656 334.356 53.672 339.017 70.235C347.544 78.3862 356.994 86.8961 367.415 90.5066C363.259 99.4932 373.792 102.461 361.71 104.555C358.268 106.803 356.54 115.583 352.231 108.736C346.566 108.301 324.195 117.207 339.323 117.901C347.833 118.127 327.281 122.501 323.372 124.024C310.054 128.608 297.265 135.738 283.202 137.816C272.923 136.123 255.208 147.085 250.792 144.395C252.756 142.251 229.775 135.274 230.574 147.555C223.583 159.677 208.329 160.991 196.201 164.638L193.401 164.65L190.662 164.426H190.66ZM206.351 160.655C217.078 158.19 231.304 151.827 231.535 139.73C229.114 138.567 237.315 134.202 229.964 130.171C218.534 124.362 220.611 109.386 212.64 99.8686C206.606 88.8456 196.751 79.1838 184.414 76.2573C176.516 74.7512 168.649 78.8997 164.788 85.9291C159.19 94.5459 156.881 112.108 162.054 118.28C162.71 103.984 167.189 86.8482 181.622 80.954C176.413 85.4345 162.27 99.0565 163.81 112.01C162.43 131.509 169.823 154.814 189.365 162.607C195.136 163.918 200.884 162.498 206.352 160.655H206.351ZM188.78 146.327C172.553 139.383 168.441 114.155 180.24 101.602C192.661 92.4472 204.083 110.12 204.507 121.356C206.114 131.485 202.212 148.283 188.78 146.327ZM195.434 143.768C207.791 134.675 203.479 114.258 194.78 103.817C181.624 92.2934 171.13 114.274 175.576 125.545C176.874 134.564 184.467 148.739 195.434 143.768ZM263.206 140.356C269.378 137.702 291.873 132.938 288.781 131.683C282.96 133.173 267.134 134.172 281.814 131.577C299.468 128.794 317.27 125.145 333.895 118.773C330.534 113.071 323.801 122.847 323.468 118.608C318.455 124.778 309.914 114.897 302.181 120.799C288.911 124.018 285.757 125.936 271.104 126.895C259.769 129.295 265.278 125.839 273.406 124.979C266.315 121.666 247.237 121.256 235.736 119.003C233.149 122.35 220.001 122.467 230.198 128.702C232.899 138.351 253.353 126.921 251.062 130.625C244.092 130.686 225.356 138.752 241.961 140.007C249.039 140.62 256.323 143.371 263.207 140.356H263.206ZM293.441 134.282C299.473 133.156 306.524 128.334 295.729 132.04C288.786 133.446 277.934 138.307 291.574 134.834L293.441 134.282ZM288.4 122.165C298.928 122.388 311.885 113.162 319.856 119.974C329.637 107.254 318.218 89.8459 302.335 96.569C294.965 95.5029 293.402 100.878 291.297 104.268C271.904 107.885 252.299 102.947 232.943 104.009C229.517 119.914 243.947 119.37 255.493 119.703C266.472 120.842 277.298 124.114 288.4 122.165ZM326.514 115.406C322.982 114.508 321.848 118.958 326.514 115.406V115.406ZM325.923 113.702C335.844 113.311 349.008 102.575 356.258 109.433C361.666 99.9433 359.821 90.7327 349.855 87.2514C360.191 89.6989 363.352 94.3287 359.946 103.868C370.456 102.698 364.085 83.3468 362.696 91.4067C350.692 81.2458 336.907 93.0353 323.714 93.501C311.913 92.1597 316.606 98.4505 324.603 100.075C327.089 103.077 318.849 115.82 325.923 113.703V113.702ZM130.138 109.885C132.79 100.52 125.236 87.3951 128.423 81.8496C125.739 71.3635 136.942 47.3623 120.839 47.926C102.582 46.4844 84.2381 45.5609 65.9892 44.6998C62.1087 51.7414 58.9122 59.6553 60.744 67.7664C63.7748 78.7382 59.8598 98.5207 74.8267 100.159C92.1336 103.592 109.297 108.267 126.812 110.357L128.93 110.121L130.14 109.885H130.138ZM68.4905 101.497C70.7416 98.6187 54.9851 98.299 65.9002 102.044L68.4905 101.497ZM306.544 94.5704C314.691 92.7836 340.32 90.8452 338.234 86.8571C341.607 84.7427 358.134 85.8255 346.172 78.3706C340.903 72.1221 325.26 64.8031 328.68 59.6832C313.731 58.8254 347.15 82.0334 330.11 69.8351C320.051 56.8792 309.944 67.0712 298.273 66.3393C288.684 68.3624 267.99 65.369 265.768 72.121C276.892 78.7594 286.629 92.9774 297.764 95.9395C300.692 95.4884 303.618 95.0305 306.544 94.5693V94.5704ZM20.8073 81.9477C22.8637 67.8533 1.66301 68.2465 13.3266 79.8578C15.3753 80.0405 18.911 83.0238 20.8073 81.9477ZM272.086 67.1559C280.135 64.255 300.308 67.7641 301.631 61.9613C288.307 53.5038 271.979 51.874 257.264 46.7128C242.151 44.0526 226.851 41.3066 211.537 40.3507C193.19 40.4087 175.179 44.096 156.976 46.0533C162.144 47.6374 186.868 51.0975 188.18 49.0299C193.652 48.3136 215.615 55.4733 226.616 58.8087C238.925 61.9412 251.17 66.4853 263.642 68.1028C266.464 67.8577 269.273 67.4934 272.085 67.1559H272.086ZM335.929 67.5102C331.216 57.5888 329.42 63.3092 335.929 67.5102V67.5102ZM120.993 45.4284C118.842 34.4075 112.023 24.3492 108.274 13.5979C102.1 6.64988 87.0308 14.7854 77.7484 13.3127C71.6202 21.0974 62.6181 47.0715 83.2171 44.1517C95.7115 44.3734 108.824 46.9779 120.994 45.4295L120.993 45.4284ZM147.244 44.1183C149.465 41.3645 121.521 44.3745 138.083 45.1075C141.14 45.2045 144.378 45.3994 147.244 44.1183ZM127.078 44.5327C122.594 41.956 122.25 46.2316 127.078 44.5327V44.5327ZM159.862 44.2754C175.83 41.9984 156.738 39.9062 152.726 44.7978C155.094 45.1554 157.503 44.4469 159.862 44.2754ZM72.6279 43.2627C69.1089 38.0169 65.8257 45.6946 72.6279 43.2627V43.2627ZM125.734 42.1309C120.463 32.7532 118.125 13.9009 108.526 11.0301C113.836 19.0911 116.78 41.0158 125.734 42.1309ZM179.817 41.829C186.787 41.5494 192.101 38.5795 181.761 40.0009C175.424 40.0466 164.817 44.3032 177.985 42.0618L179.817 41.829ZM141.597 41.8357C166.726 40.3663 191.726 36.3425 216.953 37.9411C205.763 27.7926 194.463 17.5014 181.93 9.06281C163.719 5.26294 144.719 6.79581 126.23 7.71375C115.077 6.69555 110.408 11.8456 118.173 21.25C122.477 27.3826 123.463 38.4714 129.189 42.2702C133.327 42.2835 137.463 42.0418 141.596 41.8368L141.597 41.8357ZM31.3097 39.0306C38.6658 34.7629 47.1975 27.0183 55.7314 19.3763C57.4308 13.2559 72.8859 14.7309 68.7507 10.2537C55.2364 12.5853 46.3022 24.338 35.5973 31.9155C34.5696 33.4784 21.0709 41.8402 31.3097 39.0306ZM194.333 39.3203C191.211 38.6396 193.738 40.0288 194.333 39.3203V39.3203ZM62.8861 38.1751C65.0749 29.3644 75.8988 7.30603 58.9245 18.993C51.3893 25.1791 29.845 38.5059 51.9644 37.6526C55.5011 37.7562 59.4895 39.3949 62.8861 38.1762V38.1751ZM68.3759 38.3477C68.387 32.2096 77.1512 15.1074 71.0975 14.6919C71.1798 20.1928 59.4528 38.7911 68.3759 38.3477ZM43.3548 37.9367C36.8073 34.2571 33.4185 40.1859 43.3548 37.9367V37.9367ZM74.1405 11.9258C76.9187 5.90907 67.3761 13.892 74.1405 11.9258V11.9258ZM109.44 8.04238C111.436 4.77835 103.498 9.20986 109.44 8.04238V8.04238ZM120.431 6.7557C133.446 4.87081 148.204 5.98927 160.159 4.28262C144.134 3.17864 128.051 5.24511 112.189 7.23473C114.866 7.64914 117.727 6.7869 120.432 6.7557H120.431ZM115.465 4.48537C113.216 4.11886 116.168 5.23175 115.465 4.48537V4.48537ZM42.5908 120.455C46.2365 116.121 71.7859 120.985 71.4311 104.522C74.1004 117.644 55.2598 120.118 44.8196 120.558L42.5908 120.457V120.455ZM40.9236 107.13C33.2761 99.6481 29.5313 77.7891 42.1236 74.6699C49.9135 78.814 54.5257 110.181 40.9236 107.13ZM46.033 104.133C49.6387 96.7773 48.6444 73.6361 37.7783 77.8403C33.493 83.8715 35.2024 111.112 46.033 104.133ZM269.253 100.749C261.498 92.8114 240.395 91.4189 244.499 77.261C249.71 64.2127 261.958 76.7441 258.403 86.8092C245.328 92.9117 283.636 100.779 269.252 100.75L269.253 100.749ZM253.56 87.9109C256.614 91.6139 258.119 80.0505 253.777 77.2131C261.628 83.8069 249.022 66.4273 250.012 78.5377C246.141 82.5125 247.331 90.3194 253.56 87.9109ZM249.228 76.733C246.851 69.9275 245.41 88.7631 249.228 76.733V76.733ZM88.2642 6.69778C90.482 5.99373 88.6591 7.46644 88.2642 6.69778V6.69778ZM92.3015 6.23658C95.8405 5.60049 93.0245 6.91612 92.3015 6.23658V6.23658ZM97.54 5.81549C99.7577 5.11255 97.9348 6.58415 97.54 5.81549V5.81549Z" stroke="black" stroke-width="2.10255"/>
</svg>
